<svg height="423.9" width="507" xmlns="http://www.w3.org/2000/svg"><path d="m507 369.332-40.566 40.568h-209.434v-109h213a7 7 0 0 0 4.95-2.05l32.05-32.05v-19.8l-39.9 39.9h-210.1v-109h213a7 7 0 0 0 4.95-2.05l32.05-32.05v-19.8l-39.9 39.9h-210.1v-110h213a7 7 0 0 0 4.95-2.05l32.05-32.05v-19.8l-39.9 39.9h-217.1a7 7 0 0 0 -7 7v117h-88a7 7 0 0 0 -4.95 2.05l-150.05 150.05v19.8l157.9-157.9h85.1v239a7 7 0 0 0 7 7h219.333a7 7 0 0 0 4.95-2.05l32.717-32.718z" fill="#e4e4e4"/><g fill="#a11f1f"><path d="m79.728 239.142 4.243-4.243 6.364.707.707 6.364-4.243 4.243-.707-6.364z"/><path d="m73.364 245.506 4.243-4.243 6.364.707.707 6.364-4.243 4.243-.707-6.364z" opacity=".5"/><path d="m67 251.87 4.243-4.243 6.364.707.707 6.364-4.243 4.243-.707-6.364z" opacity=".25"/></g><g fill="#2e2e2e"><g><path d="m488.728 21.143 4.243-4.243 6.364.707.707 6.364-4.243 4.243-.707-6.364z"/><path d="m482.364 27.507 4.243-4.243 6.364.707.707 6.364-4.243 4.243-.707-6.364z" opacity=".5"/><path d="m476 33.871 4.243-4.243 6.364.707.707 6.364-4.243 4.243-.707-6.364z" opacity=".25"/></g><g><path d="m488.728 145.143 4.243-4.243 6.364.707.707 6.364-4.243 4.243-.707-6.364z"/><path d="m482.364 151.507 4.243-4.243 6.364.707.707 6.364-4.243 4.243-.707-6.364z" opacity=".5"/><path d="m476 157.871 4.243-4.243 6.364.707.707 6.364-4.243 4.243-.707-6.364z" opacity=".25"/></g><g><path d="m488.728 268.143 4.243-4.243 6.364.707.707 6.364-4.243 4.243-.707-6.364z"/><path d="m482.364 274.507 4.243-4.243 6.364.707.707 6.364-4.243 4.243-.707-6.364z" opacity=".5"/><path d="m476 280.871 4.243-4.243 6.364.707.707 6.364-4.243 4.243-.707-6.364z" opacity=".25"/></g><g><path d="m488.728 390.143 4.243-4.243 6.364.707.707 6.364-4.243 4.243-.707-6.364z"/><path d="m482.364 396.507 4.243-4.243 6.364.707.707 6.364-4.243 4.243-.707-6.364z" opacity=".5"/><path d="m476 402.871 4.243-4.243 6.364.707.707 6.364-4.243 4.243-.707-6.364z" opacity=".25"/></g><g><path d="m284 288.9h6l4 5-4 5h-6l4-5z"/><path d="m275 288.9h6l4 5-4 5h-6l4-5z" opacity=".5"/><path d="m266 288.9h6l4 5-4 5h-6l4-5z" opacity=".25"/></g><g><path d="m284 165.9h6l4 5-4 5h-6l4-5z"/><path d="m275 165.9h6l4 5-4 5h-6l4-5z" opacity=".5"/><path d="m266 165.9h6l4 5-4 5h-6l4-5z" opacity=".25"/></g><g><path d="m284 41.9h6l4 5-4 5h-6l4-5z"/><path d="m275 41.9h6l4 5-4 5h-6l4-5z" opacity=".5"/><path d="m266 41.9h6l4 5-4 5h-6l4-5z" opacity=".25"/></g><g><path d="m284 411.9h6l4 5-4 5h-6l4-5z"/><path d="m275 411.9h6l4 5-4 5h-6l4-5z" opacity=".5"/><path d="m266 411.9h6l4 5-4 5h-6l4-5z" opacity=".25"/></g></g></svg>